<mxfile host="app.diagrams.net" modified="2021-12-25T07:04:02.541Z" agent="5.0 (Windows NT 10.0; Win64; x64) AppleWebKit/537.36 (KHTML, like Gecko) Chrome/96.0.4664.110 Safari/537.36" etag="70qSPM7UgnK_764lVXu4" version="16.0.3" type="github">
  <diagram id="YljCYUAWfyYjaqampWYf" name="Page-1">
    <mxGraphModel dx="1038" dy="491" grid="1" gridSize="10" guides="1" tooltips="1" connect="1" arrows="1" fold="1" page="1" pageScale="1" pageWidth="827" pageHeight="1169" math="0" shadow="0">
      <root>
        <mxCell id="0" />
        <mxCell id="1" parent="0" />
        <mxCell id="1Q5I8PqP_HSmkg2mv10E-9" style="edgeStyle=orthogonalEdgeStyle;rounded=0;orthogonalLoop=1;jettySize=auto;html=1;entryX=0;entryY=0.5;entryDx=0;entryDy=0;" edge="1" parent="1" source="1Q5I8PqP_HSmkg2mv10E-1" target="1Q5I8PqP_HSmkg2mv10E-3">
          <mxGeometry relative="1" as="geometry" />
        </mxCell>
        <mxCell id="1Q5I8PqP_HSmkg2mv10E-1" value="RPA用户通过Chatbot组件配置推送消息所需参数" style="rounded=1;whiteSpace=wrap;html=1;absoluteArcSize=1;arcSize=14;strokeWidth=2;" vertex="1" parent="1">
          <mxGeometry x="290" y="300" width="100" height="80" as="geometry" />
        </mxCell>
        <mxCell id="1Q5I8PqP_HSmkg2mv10E-12" style="edgeStyle=orthogonalEdgeStyle;rounded=0;orthogonalLoop=1;jettySize=auto;html=1;entryX=0.5;entryY=0;entryDx=0;entryDy=0;entryPerimeter=0;" edge="1" parent="1" source="1Q5I8PqP_HSmkg2mv10E-2" target="1Q5I8PqP_HSmkg2mv10E-11">
          <mxGeometry relative="1" as="geometry" />
        </mxCell>
        <mxCell id="1Q5I8PqP_HSmkg2mv10E-2" value="RPA应用底层携带用户token，请求Chatbot开放接口，消息推送成功" style="rounded=1;whiteSpace=wrap;html=1;absoluteArcSize=1;arcSize=14;strokeWidth=2;" vertex="1" parent="1">
          <mxGeometry x="550" y="300" width="100" height="80" as="geometry" />
        </mxCell>
        <mxCell id="1Q5I8PqP_HSmkg2mv10E-10" style="edgeStyle=orthogonalEdgeStyle;rounded=0;orthogonalLoop=1;jettySize=auto;html=1;entryX=0;entryY=0.5;entryDx=0;entryDy=0;" edge="1" parent="1" source="1Q5I8PqP_HSmkg2mv10E-3" target="1Q5I8PqP_HSmkg2mv10E-2">
          <mxGeometry relative="1" as="geometry" />
        </mxCell>
        <mxCell id="1Q5I8PqP_HSmkg2mv10E-3" value="Chatbot组件配置到自动化流程中，RPA应用执行流程" style="rounded=1;whiteSpace=wrap;html=1;absoluteArcSize=1;arcSize=14;strokeWidth=2;" vertex="1" parent="1">
          <mxGeometry x="420" y="300" width="100" height="80" as="geometry" />
        </mxCell>
        <mxCell id="1Q5I8PqP_HSmkg2mv10E-23" value="" style="edgeStyle=orthogonalEdgeStyle;rounded=0;orthogonalLoop=1;jettySize=auto;html=1;" edge="1" parent="1" source="1Q5I8PqP_HSmkg2mv10E-4" target="1Q5I8PqP_HSmkg2mv10E-1">
          <mxGeometry relative="1" as="geometry" />
        </mxCell>
        <mxCell id="1Q5I8PqP_HSmkg2mv10E-4" value="开始" style="strokeWidth=2;html=1;shape=mxgraph.flowchart.start_1;whiteSpace=wrap;" vertex="1" parent="1">
          <mxGeometry x="290" y="190" width="100" height="60" as="geometry" />
        </mxCell>
        <mxCell id="1Q5I8PqP_HSmkg2mv10E-16" style="edgeStyle=orthogonalEdgeStyle;rounded=0;orthogonalLoop=1;jettySize=auto;html=1;entryX=0.5;entryY=0;entryDx=0;entryDy=0;" edge="1" parent="1" source="1Q5I8PqP_HSmkg2mv10E-11" target="1Q5I8PqP_HSmkg2mv10E-13">
          <mxGeometry relative="1" as="geometry" />
        </mxCell>
        <mxCell id="1Q5I8PqP_HSmkg2mv10E-19" value="成功" style="edgeLabel;html=1;align=center;verticalAlign=middle;resizable=0;points=[];" vertex="1" connectable="0" parent="1Q5I8PqP_HSmkg2mv10E-16">
          <mxGeometry x="-0.2571" y="-1" relative="1" as="geometry">
            <mxPoint as="offset" />
          </mxGeometry>
        </mxCell>
        <mxCell id="1Q5I8PqP_HSmkg2mv10E-21" value="" style="edgeStyle=orthogonalEdgeStyle;rounded=0;orthogonalLoop=1;jettySize=auto;html=1;" edge="1" parent="1" source="1Q5I8PqP_HSmkg2mv10E-11" target="1Q5I8PqP_HSmkg2mv10E-20">
          <mxGeometry relative="1" as="geometry" />
        </mxCell>
        <mxCell id="1Q5I8PqP_HSmkg2mv10E-22" value="失败" style="edgeLabel;html=1;align=center;verticalAlign=middle;resizable=0;points=[];" vertex="1" connectable="0" parent="1Q5I8PqP_HSmkg2mv10E-21">
          <mxGeometry x="-0.2533" relative="1" as="geometry">
            <mxPoint as="offset" />
          </mxGeometry>
        </mxCell>
        <mxCell id="1Q5I8PqP_HSmkg2mv10E-11" value="token鉴权" style="strokeWidth=2;html=1;shape=mxgraph.flowchart.decision;whiteSpace=wrap;" vertex="1" parent="1">
          <mxGeometry x="550" y="420" width="100" height="100" as="geometry" />
        </mxCell>
        <mxCell id="1Q5I8PqP_HSmkg2mv10E-18" value="" style="edgeStyle=orthogonalEdgeStyle;rounded=0;orthogonalLoop=1;jettySize=auto;html=1;" edge="1" parent="1" source="1Q5I8PqP_HSmkg2mv10E-13" target="1Q5I8PqP_HSmkg2mv10E-17">
          <mxGeometry relative="1" as="geometry" />
        </mxCell>
        <mxCell id="1Q5I8PqP_HSmkg2mv10E-13" value="执行消息推送" style="rounded=1;whiteSpace=wrap;html=1;absoluteArcSize=1;arcSize=14;strokeWidth=2;" vertex="1" parent="1">
          <mxGeometry x="550" y="560" width="100" height="80" as="geometry" />
        </mxCell>
        <mxCell id="1Q5I8PqP_HSmkg2mv10E-17" value="返回推送结果" style="rounded=1;whiteSpace=wrap;html=1;absoluteArcSize=1;arcSize=14;strokeWidth=2;" vertex="1" parent="1">
          <mxGeometry x="400" y="560" width="100" height="80" as="geometry" />
        </mxCell>
        <mxCell id="1Q5I8PqP_HSmkg2mv10E-20" value="鉴权失败" style="rounded=1;whiteSpace=wrap;html=1;absoluteArcSize=1;arcSize=14;strokeWidth=2;" vertex="1" parent="1">
          <mxGeometry x="400" y="430" width="100" height="80" as="geometry" />
        </mxCell>
      </root>
    </mxGraphModel>
  </diagram>
</mxfile>
